<?xml version="1.0" encoding="UTF-8"?>
<!DOCTYPE svg PUBLIC "-//W3C//DTD SVG 1.1//EN" "http://www.w3.org/Graphics/SVG/1.1/DTD/svg11.dtd">
<svg xmlns="http://www.w3.org/2000/svg" version="1.1" width="65px" height="64px" style="shape-rendering:geometricPrecision; text-rendering:geometricPrecision; image-rendering:optimizeQuality; fill-rule:evenodd; clip-rule:evenodd" xmlns:xlink="http://www.w3.org/1999/xlink">
<g><path style="opacity:0.731" fill="#000000" d="M -0.5,37.5 C -0.5,33.8333 -0.5,30.1667 -0.5,26.5C 2.4623,16.005 9.4623,11.505 20.5,13C 28.9576,16.7445 32.6243,23.2445 31.5,32.5C 22.1667,32.5 12.8333,32.5 3.5,32.5C 3.95679,44.4616 9.95679,48.9616 21.5,46C 22.9308,45.5348 24.0975,44.7014 25,43.5C 26.0152,40.7899 27.5152,38.4566 29.5,36.5C 30.3081,36.8076 30.9747,37.3076 31.5,38C 26.8541,50.111 18.5207,53.4444 6.5,48C 2.74832,45.2992 0.414985,41.7992 -0.5,37.5 Z M 15.5,15.5 C 23.4323,16.7673 27.4323,21.434 27.5,29.5C 19.5,29.5 11.5,29.5 3.5,29.5C 3.60071,21.4044 7.60071,16.7378 15.5,15.5 Z"/></g>
<g><path style="opacity:0.715" fill="#000000" d="M 33.5,13.5 C 34.8734,13.3433 36.2068,13.51 37.5,14C 41.3625,18.2286 44.8625,22.7286 48,27.5C 51.6208,23.0905 55.1208,18.5905 58.5,14C 59.9437,13.2195 61.277,13.3861 62.5,14.5C 58.8847,20.1162 54.8847,25.4495 50.5,30.5C 54.8333,36.5 59.1667,42.5 63.5,48.5C 62.277,49.6139 60.9437,49.7805 59.5,49C 55.6667,43.8333 51.8333,38.6667 48,33.5C 44.1667,38.6667 40.3333,43.8333 36.5,49C 35.0563,49.7805 33.723,49.6139 32.5,48.5C 36.8333,42.5 41.1667,36.5 45.5,30.5C 40.7429,25.3011 36.7429,19.6344 33.5,13.5 Z"/></g>
</svg>
